# Exported from Wings 3D 1.5.2
mtllib key.mtl
o Key
#108 vertices, 108 faces
v 0.75000000 0.0000000e+0 0.0000000e+0
v 0.67500000 -0.21650635 0.0000000e+0
v 0.52500000 -0.21650635 0.0000000e+0
v 0.45000000 -3.0616170e-17 0.0000000e+0
v 0.52500000 0.21650635 0.0000000e+0
v 0.67500000 0.21650635 0.0000000e+0
v 0.63094015 0.0000000e+0 0.67580102
v 0.56784613 -0.21650635 0.60822092
v 0.44165810 -0.21650635 0.47306072
v 0.37856409 -3.0616170e-17 0.40548061
v 0.44165810 0.21650635 0.47306072
v 0.56784613 0.21650635 0.60822092
v 0.31156126 0.0000000e+0 1.13703999
v 0.28040513 -0.21650635 1.02333599
v 0.21809288 -0.21650635 0.79592800
v 0.18693676 -3.0616170e-17 0.68222400
v 0.21809288 0.21650635 0.79592800
v 0.28040513 0.21650635 1.02333599
v -0.10673613 0.0000000e+0 1.23727680
v -9.6062516e-2 -0.21650635 1.11354912
v -7.4715290e-2 -0.21650635 0.86609376
v -6.4041677e-2 -3.0616170e-17 0.74236608
v -7.4715290e-2 0.21650635 0.86609376
v -9.6062516e-2 0.21650635 1.11354912
v -0.49114555 0.0000000e+0 0.94468697
v -0.44203100 -0.21650635 0.85021827
v -0.34380189 -0.21650635 0.66128088
v -0.29468733 -3.0616170e-17 0.56681218
v -0.34380189 0.21650635 0.66128088
v -0.44203100 0.21650635 0.85021827
v -0.71961973 0.0000000e+0 0.24792465
v -0.64765776 -0.21650635 0.22313219
v -0.50373381 -0.21650635 0.24651599
v -0.43177184 -3.0616170e-17 0.21129942
v -0.50373381 0.21650635 0.24651599
v -0.64765776 0.21650635 0.22313219
v -0.71961973 0.0000000e+0 -0.24792465
v -0.64765776 -0.21650635 -0.22313219
v -0.50373381 -0.21650635 -0.24651599
v -0.43177184 -3.0616170e-17 -0.21129942
v -0.50373381 0.21650635 -0.24651599
v -0.64765776 0.21650635 -0.22313219
v -0.49114555 0.0000000e+0 -0.94468697
v -0.44203100 -0.21650635 -0.85021827
v -0.34380189 -0.21650635 -0.66128088
v -0.29468733 -3.0616170e-17 -0.56681218
v -0.34380189 0.21650635 -0.66128088
v -0.44203100 0.21650635 -0.85021827
v -0.10673613 0.0000000e+0 -1.23727680
v -9.6062516e-2 -0.21650635 -1.11354912
v -7.4715290e-2 -0.21650635 -0.86609376
v -6.4041677e-2 -3.0616170e-17 -0.74236608
v -7.4715290e-2 0.21650635 -0.86609376
v -9.6062516e-2 0.21650635 -1.11354912
v 0.31156126 0.0000000e+0 -1.13703999
v 0.28040513 -0.21650635 -1.02333599
v 0.21809288 -0.21650635 -0.79592800
v 0.18693676 -3.0616170e-17 -0.68222400
v 0.21809288 0.21650635 -0.79592800
v 0.28040513 0.21650635 -1.02333599
v 0.63094015 0.0000000e+0 -0.67580102
v 0.56784613 -0.21650635 -0.60822092
v 0.44165810 -0.21650635 -0.47306072
v 0.37856409 -3.0616170e-17 -0.40548061
v 0.44165810 0.21650635 -0.47306072
v 0.56784613 0.21650635 -0.60822092
v -1.23434020 2.0061174e-16 0.24445370
v -1.23434020 2.0061174e-16 -0.24445370
v -1.22919418 -0.21569130 -0.22000833
v -1.22919418 -0.21569130 0.22000833
v -1.22919418 0.21569130 0.22000833
v -1.22919418 0.21569130 -0.22000833
v -1.76589575 2.0061174e-16 0.24445370
v -1.76589575 2.0061174e-16 -0.24445370
v -1.76074973 0.21569130 0.22000833
v -1.76074973 0.21569130 -0.22000833
v -1.76074973 -0.21569130 -0.22000833
v -1.76074973 -0.21569130 0.22000833
v -2.02367353 2.0061174e-16 0.24445370
v -2.02367353 2.0061174e-16 -0.24445370
v -2.01852751 0.21569130 0.22000833
v -2.01852751 0.21569130 -0.22000833
v -2.01852751 -0.21569130 -0.22000833
v -2.01852751 -0.21569130 0.22000833
v -2.24411797 2.0061174e-16 0.24445370
v -2.24411797 2.0061174e-16 -0.24445370
v -2.23897196 -0.21569130 -0.22000833
v -2.23897196 -0.21569130 0.22000833
v -2.23897196 0.21569130 0.22000833
v -2.23897196 0.21569130 -0.22000833
v -2.48234020 2.0061174e-16 0.24445370
v -2.48234020 2.0061174e-16 -0.24445370
v -2.47719418 0.21569130 0.22000833
v -2.47719418 0.21569130 -0.22000833
v -2.47719418 -0.21569130 -0.22000833
v -2.47719418 -0.21569130 0.22000833
v -1.76589575 1.9329010e-16 -0.76867728
v -2.02367353 1.9329010e-16 -0.76867728
v -1.76074973 -0.27435070 -0.73758375
v -2.01852751 -0.27435070 -0.73758375
v -2.01852751 0.27435070 -0.73758375
v -1.76074973 0.27435070 -0.73758375
v -2.24411797 1.8596847e-16 -0.76867728
v -2.48234020 1.8596847e-16 -0.76867728
v -2.23897196 -0.27435070 -0.73758375
v -2.47719418 -0.27435070 -0.73758375
v -2.47719418 0.27435070 -0.73758375
v -2.23897196 0.27435070 -0.73758375
vn 1.00000000 1.4888984e-16 -2.9777968e-17
vn 0.57597531 -0.81746709 -1.8647883e-17
vn -0.57597531 -0.81746709 8.5756872e-18
vn -1.00000000 -2.3822374e-16 2.9777968e-17
vn -0.57597531 0.81746709 2.6130426e-17
vn 0.57597531 0.81746709 -1.7151374e-17
vn 0.92595175 1.8239912e-16 0.37764184
vn 0.51768348 -0.82911199 0.21113297
vn -0.51768348 -0.82911199 -0.21113297
vn -0.92595175 -2.1279897e-16 -0.37764184
vn -0.51768348 0.82911199 -0.21113297
vn 0.51768348 0.82911199 0.21113297
vn 0.57256195 2.6392375e-16 0.81986146
vn 0.29010103 -0.86213898 0.41540073
vn -0.29010103 -0.86213898 -0.41540073
vn -0.57256195 -1.9794282e-16 -0.81986146
vn -0.29010103 0.86213898 -0.41540073
vn 0.29010103 0.86213898 0.41540073
vn -0.21183377 2.7639903e-16 0.97730571
vn -0.10227852 -0.87571717 0.47186707
vn 0.10227852 -0.87571717 -0.47186707
vn 0.21183377 -1.7274940e-16 -0.97730571
vn 0.10227852 0.87571717 -0.47186707
vn -0.10227852 0.87571717 0.47186707
vn -0.81896746 2.2076765e-16 0.57383996
vn -0.43947968 -0.84381985 0.30793776
vn 0.43089787 -0.84390198 -0.31961928
vn 0.80316861 -1.5693550e-16 -0.59575178
vn 0.43089787 0.84390198 -0.31961928
vn -0.43947968 0.84381985 0.30793776
vn -0.57403401 1.8536402e-16 0.81883145
vn -0.23862865 -0.90969699 0.33986432
vn 0.56235600 -0.82032233 -0.10405285
vn 0.98330928 -2.0943429e-16 -0.18194192
vn 0.56235600 0.82032233 -0.10405285
vn -0.23862865 0.90969699 0.33986432
vn -0.57403401 5.7374577e-17 -0.81883145
vn -0.23862865 -0.90969699 -0.33986432
vn 0.56235600 -0.82032233 0.10405285
vn 0.98330928 -2.3935348e-16 0.18194192
vn 0.56235600 0.82032233 0.10405285
vn -0.23862865 0.90969699 -0.33986432
vn -0.81896746 1.8922942e-16 -0.57383996
vn -0.43947968 -0.84381985 -0.30793776
vn 0.43089787 -0.84390198 0.31961928
vn 0.80316861 -1.8832260e-16 0.59575178
vn 0.43089787 0.84390198 0.31961928
vn -0.43947968 0.84381985 -0.30793776
vn -0.21183377 3.2822385e-16 -0.97730571
vn -0.10227852 -0.87571717 -0.47186707
vn 0.10227852 -0.87571717 0.47186707
vn 0.21183377 -1.7274940e-16 0.97730571
vn 0.10227852 0.87571717 0.47186707
vn -0.10227852 0.87571717 -0.47186707
vn 0.57256195 2.6392375e-16 -0.81986146
vn 0.29010103 -0.86213898 -0.41540073
vn -0.29010103 -0.86213898 0.41540073
vn -0.57256195 -2.3093328e-16 0.81986146
vn -0.29010103 0.86213898 0.41540073
vn 0.29010103 0.86213898 -0.41540073
vn 0.92595175 1.6719919e-16 -0.37764184
vn 0.51768348 -0.82911199 -0.21113297
vn -0.51768348 -0.82911199 0.21113297
vn -0.92595175 -2.4319883e-16 0.37764184
vn -0.51768348 0.82911199 0.21113297
vn 0.51768348 0.82911199 -0.21113297
vn -3.0502942e-3 1.3618816e-16 0.99999535
vn -3.0502942e-3 -6.9840081e-18 -0.99999535
vn -2.5004633e-3 -0.74613602 -0.66578885
vn -2.5004633e-3 -0.74613602 0.66578885
vn -2.5004633e-3 0.74613602 0.66578885
vn -2.5004633e-3 0.74613602 -0.66578885
vn 0.0000000e+0 1.6759959e-16 1.00000000
vn 0.70886580 -6.5433592e-16 -0.70534338
vn 0.0000000e+0 0.74585992 0.66610283
vn 0.29745053 0.91795082 -0.26246805
vn 0.29745053 -0.91795082 -0.26246805
vn 0.0000000e+0 -0.74585992 0.66610283
vn 0.0000000e+0 1.7458290e-16 1.00000000
vn -0.70969923 6.1816322e-16 -0.70450479
vn 0.0000000e+0 0.74585992 0.66610283
vn -0.29414805 0.92003643 -0.25886268
vn -0.29414805 -0.92003643 -0.25886268
vn 0.0000000e+0 -0.74585992 0.66610283
vn 0.0000000e+0 1.8505788e-16 1.00000000
vn 0.70886580 -6.5679583e-16 -0.70534338
vn 0.29745053 -0.91795082 -0.26246805
vn 0.0000000e+0 -0.74585992 0.66610283
vn 0.0000000e+0 0.74585992 0.66610283
vn 0.29745053 0.91795082 -0.26246805
vn -0.70925909 8.5658009e-16 0.70494790
vn -0.99999983 9.6301350e-16 5.8754809e-4
vn -0.55214340 0.62767049 0.54878723
vn -0.69971420 0.71331229 3.9819846e-2
vn -0.69971420 -0.71331229 3.9819846e-2
vn -0.55214340 -0.62767049 0.54878723
vn 0.70886580 -6.5433592e-16 -0.70534338
vn -0.70969923 6.2308882e-16 -0.70450479
vn 0.58151346 -0.63130572 -0.51312298
vn -0.57302845 -0.64601146 -0.50428919
vn -0.57302845 0.64601146 -0.50428919
vn 0.58151346 0.63130572 -0.51312298
vn 0.70886580 -6.5679583e-16 -0.70534338
vn -0.70969923 6.1816322e-16 -0.70450479
vn 0.58151346 -0.63130572 -0.51312298
vn -0.57302845 -0.64601146 -0.50428919
vn -0.57302845 0.64601146 -0.50428919
vn 0.58151346 0.63130572 -0.51312298
g Key_default
usemtl default
s 1
f 1//1 7//7 8//8 2//2
f 1//1 61//61 66//66 6//6
f 2//2 8//8 9//9 3//3
f 2//2 62//62 61//61 1//1
f 3//3 9//9 10//10 4//4
f 3//3 63//63 62//62 2//2
f 4//4 10//10 11//11 5//5
f 4//4 64//64 63//63 3//3
f 5//5 11//11 12//12 6//6
f 5//5 65//65 64//64 4//4
f 6//6 12//12 7//7 1//1
f 6//6 66//66 65//65 5//5
f 7//7 13//13 14//14 8//8
f 8//8 14//14 15//15 9//9
f 9//9 15//15 16//16 10//10
f 10//10 16//16 17//17 11//11
f 11//11 17//17 18//18 12//12
f 12//12 18//18 13//13 7//7
f 13//13 19//19 20//20 14//14
f 14//14 20//20 21//21 15//15
f 15//15 21//21 22//22 16//16
f 16//16 22//22 23//23 17//17
f 17//17 23//23 24//24 18//18
f 18//18 24//24 19//19 13//13
f 19//19 25//25 26//26 20//20
f 20//20 26//26 27//27 21//21
f 21//21 27//27 28//28 22//22
f 22//22 28//28 29//29 23//23
f 23//23 29//29 30//30 24//24
f 24//24 30//30 25//25 19//19
f 25//25 31//31 32//32 26//26
f 26//26 32//32 33//33 27//27
f 27//27 33//33 34//34 28//28
f 28//28 34//34 35//35 29//29
f 29//29 35//35 36//36 30//30
f 30//30 36//36 31//31 25//25
f 31//31 67//67 70//70 32//32
f 32//32 38//38 39//39 33//33
f 32//32 70//70 69//69 38//38
f 33//33 39//39 40//40 34//34
f 34//34 40//40 41//41 35//35
f 35//35 41//41 42//42 36//36
f 36//36 71//71 67//67 31//31
f 37//37 43//43 44//44 38//38
f 37//37 68//68 72//72 42//42
f 38//38 44//44 45//45 39//39
f 38//38 69//69 68//68 37//37
f 39//39 45//45 46//46 40//40
f 40//40 46//46 47//47 41//41
f 41//41 47//47 48//48 42//42
f 42//42 48//48 43//43 37//37
f 42//42 72//72 71//71 36//36
f 43//43 49//49 50//50 44//44
f 44//44 50//50 51//51 45//45
f 45//45 51//51 52//52 46//46
f 46//46 52//52 53//53 47//47
f 47//47 53//53 54//54 48//48
f 48//48 54//54 49//49 43//43
f 49//49 55//55 56//56 50//50
f 50//50 56//56 57//57 51//51
f 51//51 57//57 58//58 52//52
f 52//52 58//58 59//59 53//53
f 53//53 59//59 60//60 54//54
f 54//54 60//60 55//55 49//49
f 55//55 61//61 62//62 56//56
f 56//56 62//62 63//63 57//57
f 57//57 63//63 64//64 58//58
f 58//58 64//64 65//65 59//59
f 59//59 65//65 66//66 60//60
f 60//60 66//66 61//61 55//55
f 67//67 71//71 75//75 73//73
f 68//68 74//74 76//76 72//72
f 69//69 77//77 74//74 68//68
f 70//70 78//78 77//77 69//69
f 72//72 76//76 75//75 71//71
f 73//73 75//75 81//81 79//79
f 73//73 78//78 70//70 67//67
f 74//74 97//97 102//102 76//76
f 76//76 82//82 81//81 75//75
f 76//76 102//102 101//101 82//82
f 77//77 99//99 97//97 74//74
f 78//78 84//84 83//83 77//77
f 79//79 81//81 89//89 85//85
f 79//79 84//84 78//78 73//73
f 80//80 82//82 101//101 98//98
f 80//80 86//86 90//90 82//82
f 82//82 90//90 89//89 81//81
f 83//83 87//87 86//86 80//80
f 83//83 100//100 99//99 77//77
f 84//84 88//88 87//87 83//83
f 85//85 88//88 84//84 79//79
f 85//85 89//89 93//93 91//91
f 86//86 103//103 108//108 90//90
f 87//87 105//105 103//103 86//86
f 88//88 96//96 95//95 87//87
f 90//90 94//94 93//93 89//89
f 90//90 108//108 107//107 94//94
f 91//91 93//93 94//94 92//92
f 91//91 96//96 88//88 85//85
f 92//92 94//94 107//107 104//104
f 92//92 95//95 96//96 91//91
f 95//95 106//106 105//105 87//87
f 97//97 99//99 100//100 98//98
f 98//98 100//100 83//83 80//80
f 98//98 101//101 102//102 97//97
f 103//103 105//105 106//106 104//104
f 104//104 106//106 95//95 92//92
f 104//104 107//107 108//108 103//103
